<?xml version="1.0" encoding="utf-8"?>
<!-- Svg Vector Icons : http://www.onlinewebfonts.com/icon -->
<!DOCTYPE svg PUBLIC "-//W3C//DTD SVG 1.1//EN" "http://www.w3.org/Graphics/SVG/1.1/DTD/svg11.dtd">
<svg version="1.1" xmlns="http://www.w3.org/2000/svg" xmlns:xlink="http://www.w3.org/1999/xlink" x="0px" y="0px" viewBox="0 0 1000 1000" enable-background="new 0 0 1000 1000" xml:space="preserve">
<metadata> Svg Vector Icons : http://www.onlinewebfonts.com/icon </metadata>
<g><g  style="font-size:4rem;"><path d="M4571,4996.9c-1445-166.2-2668.3-1094.1-3217.7-2439.8c-198.5-487-267.8-851.7-270.1-1403.4c0-387.8,4.6-431.7,66.9-657.9c267.8-969.5,1020.2-2176.7,2264.4-3623.9c457-533.2,1532.7-1661.9,1581.1-1661.9c30,0,1001.8,1001.8,1320.3,1361.9C7622.5-1948.6,8446.5-711.3,8765,253.5c133.9,408.6,163.9,623.2,147.8,1024.9c-23.1,570.1-140.8,1017.9-410.9,1560.4c-203.1,410.9-406.3,694.8-724.8,1015.6c-590.9,590.9-1313.4,969.5-2123.6,1108C5399.6,5006.1,4818,5024.6,4571,4996.9z M4026.2,2077v-496.3h969.5h969.5V2077v496.3H6473h507.8V2077v-496.3h242.4h242.4v-496.3V588.2h-242.4h-242.4V91.9v-496.3H6473h-507.8V91.9v496.3h-969.5h-969.5V91.9v-496.3h-507.8h-507.8V91.9v496.3h-242.4h-242.4v496.3v496.3h242.4h242.4V2077v496.3h507.8h507.8V2077z"/></g></g>
</svg>